<?xml version="1.0" standalone="no"?>
<!DOCTYPE svg PUBLIC "-//W3C//DTD SVG 20010904//EN"
 "http://www.w3.org/TR/2001/REC-SVG-20010904/DTD/svg10.dtd">
<svg version="1.0"
    xmlns="http://www.w3.org/2000/svg" width="500.000000pt" height="500.000000pt" viewBox="0 0 500.000000 500.000000" preserveAspectRatio="xMidYMid meet">
    <metadata>
Created by potrace 1.14, written by Peter Selinger 2001-2017
    </metadata>
    <g transform="translate(0.000000,500.000000) scale(0.100000,-0.100000)" fill="#000000" stroke="none">
        <path d="M0 2500 l0 -2500 2500 0 2500 0 0 2500 0 2500 -2500 0 -2500 0 0
-2500z m3093 1900 c161 -13 246 -34 354 -86 l92 -44 187 0 187 0 49 -37 c27
-21 70 -65 95 -98 47 -62 108 -173 100 -182 -3 -2 -80 -7 -171 -10 -136 -5
-166 -9 -162 -20 15 -38 41 -137 56 -208 l16 -80 183 -7 c100 -3 185 -8 187
-10 6 -7 24 -188 24 -249 l0 -56 -77 -7 c-42 -3 -149 -6 -238 -6 l-162 0 -7
-127 c-3 -71 -9 -140 -12 -154 l-6 -27 300 -3 c165 -2 303 -7 307 -10 7 -8 -3
-69 -15 -89 -7 -11 -63 -15 -287 -18 l-278 -4 -33 -103 c-42 -130 -104 -236
-187 -319 l-66 -66 208 -2 208 -3 -87 -43 c-56 -28 -120 -50 -175 -61 -49 -10
-88 -22 -88 -27 0 -5 22 -46 49 -92 27 -46 46 -85 43 -88 -2 -3 -68 -8 -146
-11 -78 -3 -140 -10 -139 -14 2 -5 68 -119 148 -253 l145 -246 96 0 c53 0 129
-3 170 -6 l75 -7 25 -47 25 -47 -65 -7 c-36 -3 -108 -6 -158 -6 -51 0 -93 -3
-93 -6 0 -4 70 -124 155 -268 113 -191 155 -271 155 -294 0 -30 2 -32 38 -32
20 0 67 -3 105 -7 77 -7 82 -16 38 -65 l-29 -33 -379 -3 c-208 -2 -393 0 -411
3 -23 4 -41 18 -63 48 l-30 42 -106 10 -106 10 -168 295 -169 295 57 6 c32 4
104 7 161 8 l102 1 -25 50 -25 50 -168 0 -167 0 -147 258 c-82 142 -148 261
-148 265 0 4 67 8 149 9 l150 3 -46 83 -45 82 -374 0 -374 0 0 -84 0 -83 -77
-7 c-42 -3 -111 -6 -155 -6 l-78 0 0 -255 0 -255 293 0 c162 0 328 -3 370 -6
l77 -7 0 -47 0 -47 -77 -7 c-42 -3 -208 -6 -370 -6 l-293 0 0 -299 0 -298 99
-7 c107 -8 112 -12 72 -60 -36 -43 -64 -46 -401 -46 -360 0 -377 3 -406 63
l-17 35 -103 7 -104 7 0 297 0 298 77 7 c42 3 116 6 165 6 l88 0 0 50 0 50
-165 0 -165 0 0 265 0 265 155 0 155 0 0 160 0 160 -216 0 -215 0 3 219 c3
205 4 221 24 248 l21 28 299 8 c164 4 769 11 1344 15 l1045 7 52 24 c110 49
103 51 -226 51 l-302 0 26 44 c29 50 55 157 55 234 l0 52 240 0 c223 0 240 1
240 18 0 54 -23 191 -41 237 l-20 53 -188 7 -189 7 -20 28 c-11 15 -42 38 -69
51 l-48 24 -1055 5 c-987 5 -1057 6 -1081 23 -34 23 -48 56 -56 128 l-6 59
182 0 181 0 0 160 0 160 -190 0 -190 0 0 23 c0 34 37 87 73 102 27 12 212 14
1147 14 639 1 1165 -3 1233 -9z m-660 -826 c71 -6 77 -9 77 -29 0 -20 -6 -23
-77 -29 -42 -3 -273 -6 -515 -6 l-438 0 0 29 c0 29 2 30 53 34 96 6 823 7 900
1z m-410 -401 l67 -6 0 -52 0 -52 -77 -7 c-42 -3 -264 -6 -493 -6 -229 0 -451
3 -493 6 l-77 7 0 58 0 59 503 0 c276 0 532 -3 570 -7z m650 -2010 c61 -5 67
-8 67 -28 0 -20 -6 -23 -67 -28 -38 -4 -267 -7 -510 -7 l-443 0 0 35 0 35 443
0 c243 0 472 -3 510 -7z"/>
    </g>
</svg>
